<svg width="720" height="688" viewBox="0 0 720 688" fill="none" xmlns="http://www.w3.org/2000/svg">
<g clip-path="url(#clip0_19_2)">
<path d="M621.37 353.954C621.542 347.03 617.072 344.159 612.773 343.484C613.289 341.12 613.633 339.431 613.805 338.587C613.977 337.742 614.321 336.223 614.664 334.534C621.198 331.494 627.388 327.104 629.624 318.491C633.406 304.306 625.497 301.773 618.791 310.217C613.805 316.465 612.429 323.895 612.085 327.272C611.913 327.779 611.913 328.455 611.741 329.13C610.366 329.468 598.502 332.339 594.031 341.964C589.389 352.096 589.217 364.93 605.38 368.646C605.38 368.646 605.38 369.659 605.208 371.348C605.036 374.556 604.348 379.96 602.285 381.649C599.19 384.182 593.859 384.182 591.796 378.947C591.796 378.947 597.298 381.817 598.674 377.933C600.049 374.049 593.859 370.672 590.42 372.867C587.154 374.894 584.059 381.649 595.923 386.377C607.787 391.105 607.959 368.646 608.303 368.308C608.818 367.801 621.198 365.099 621.37 353.954ZM619.823 315.283C622.402 311.736 628.248 309.203 626.872 316.127C625.497 323.051 615.696 326.935 615.696 326.935C615.696 326.935 617.416 318.998 619.823 315.283ZM599.018 363.242C592.312 358.007 591.968 344.328 601.769 339.938C604.52 338.756 607.615 337.574 610.71 336.391C610.366 338.756 610.022 341.289 609.678 343.484C608.131 343.653 606.927 343.991 606.067 344.666C602.628 347.199 599.018 352.265 602.457 357.838C602.457 357.838 600.393 352.096 604.864 348.888C606.067 348.043 607.443 347.706 608.99 347.537C608.818 348.888 608.475 350.07 608.303 350.914C607.615 354.123 606.583 360.709 605.895 365.606C603.66 365.606 601.081 364.762 599.018 363.242ZM608.818 365.268C609.506 360.202 610.882 353.278 611.913 347.875C615.524 348.719 618.447 351.759 617.588 356.487C616.728 361.046 613.117 364.255 608.818 365.268Z" fill="url(#paint0_linear_19_2)"/>
<path d="M327.347 144.386L354.342 149.79L348.668 180.524C347.121 179.68 342.994 178.329 340.759 178.16C335.945 177.991 331.818 180.356 331.818 183.395C331.818 186.435 335.601 188.968 340.587 189.137C345.573 189.306 349.528 186.942 349.528 183.902L358.125 144.217L327.175 137.294L321.673 167.69C320.126 166.677 316.171 165.326 313.764 165.157C308.778 164.988 304.823 167.353 304.823 170.392C304.823 173.432 308.606 175.965 313.592 176.134C317.719 176.303 321.329 174.445 322.361 172.081C322.533 171.912 322.533 171.574 322.533 171.405L327.347 144.386Z" fill="url(#paint1_linear_19_2)"/>
<path d="M500.838 127.161C496.024 124.966 492.757 124.966 490.693 122.602L491.897 125.641L493.101 128.343L501.354 148.101C500.322 147.763 499.291 147.932 498.087 148.439C496.883 148.946 495.68 149.79 494.82 150.972C492.585 153.674 492.585 157.22 494.648 158.909C495.852 159.753 497.399 159.922 499.119 159.247C500.322 158.74 501.526 157.896 502.386 156.714C503.417 155.363 503.933 153.843 504.105 152.492C504.105 151.31 503.933 150.297 503.245 149.621L494.476 128.681C495.852 128.681 497.915 128.85 499.462 129.188C501.698 129.525 505.48 131.214 505.652 134.76C505.48 134.423 507.2 130.032 500.838 127.161Z" fill="url(#paint2_linear_19_2)"/>
<path d="M709.061 296.707L710.437 294.512L708.029 293.499L710.78 289.783L708.889 288.77L706.31 292.823L701.496 290.965L704.591 286.744L702.699 285.73L699.776 290.121L695.821 288.601L693.93 291.641L698.057 292.992L696.165 295.863L692.039 294.512L690.491 296.876L694.618 298.058L692.211 301.773L694.274 301.098L696.165 298.565L701.668 300.084L698.916 304.306L700.98 303.631L703.215 300.591L706.31 301.435L707.342 299.747L704.419 298.733L706.482 295.863L709.061 296.707ZM702.871 298.058L697.713 296.369L699.776 293.499L704.762 295.187L702.871 298.058Z" fill="url(#paint3_linear_19_2)"/>
<path d="M523.535 533.294C523.535 534.476 522.675 535.32 521.643 535.32C520.611 535.32 519.58 534.476 519.58 533.463C519.58 532.281 520.44 531.436 521.471 531.436C522.503 531.436 523.363 532.281 523.535 533.294Z" fill="url(#paint4_linear_19_2)"/>
<path d="M523.706 541.737C523.706 542.751 522.847 543.764 521.815 543.764C520.611 543.764 519.752 542.92 519.752 541.906C519.752 540.724 520.611 539.88 521.643 539.88C522.847 539.711 523.706 540.724 523.706 541.737Z" fill="url(#paint5_linear_19_2)"/>
<path d="M497.399 559.638C497.399 559.638 518.032 551.194 517.86 539.036C517.86 526.877 505.309 527.215 501.698 529.241C498.087 531.268 496.024 535.489 498.087 538.698C500.15 541.906 505.824 542.244 505.996 537.685C506.168 533.125 499.634 534.645 499.634 534.645C499.634 534.645 500.322 529.072 507.372 530.085C515.109 531.268 516.485 549.506 497.399 559.638Z" fill="url(#paint6_linear_19_2)"/>
<g opacity="0.25">
<path d="M417.618 667.546C270.778 667.546 151.793 550.688 151.793 406.473C151.793 262.258 270.778 145.399 417.618 145.399C564.457 145.399 683.442 262.258 683.442 406.473C683.442 550.688 564.457 667.546 417.618 667.546Z" fill="url(#paint7_linear_19_2)"/>
<path d="M576.493 250.437C664.184 336.561 664.184 476.385 576.493 562.509C488.63 648.633 346.433 648.633 258.742 562.509C171.051 476.385 171.051 336.561 258.742 250.437C346.433 164.144 488.802 164.144 576.493 250.437Z" fill="url(#paint8_linear_19_2)"/>
<path d="M417.618 195.723C536.086 195.723 632.203 290.121 632.203 406.473C632.203 522.824 536.086 617.223 417.618 617.223C299.149 617.223 203.032 522.824 203.032 406.473C203.032 290.121 299.149 195.723 417.618 195.723Z" fill="url(#paint9_linear_19_2)"/>
<path d="M415.898 235.407C511.155 235.407 588.357 311.23 588.357 404.784C588.357 498.338 511.155 574.161 415.898 574.161C320.642 574.161 243.439 498.338 243.439 404.784C243.439 311.23 320.642 235.407 415.898 235.407Z" fill="url(#paint10_linear_19_2)"/>
<path d="M441.002 478.58C400.423 491.245 357.094 469.292 344.198 429.27C331.302 389.417 353.655 346.862 394.405 334.196C434.984 321.531 478.313 343.653 491.209 383.506C503.933 423.36 481.58 465.915 441.002 478.58Z" fill="url(#paint11_linear_19_2)"/>
<path d="M661.261 415.929C654.727 415.929 649.397 410.695 649.397 404.277C649.397 397.86 654.727 392.457 661.261 392.457C667.795 392.457 673.125 397.692 673.125 404.277C673.125 410.695 667.795 415.929 661.261 415.929Z" fill="url(#paint12_linear_19_2)"/>
<path d="M661.261 414.072C655.931 414.072 651.46 409.85 651.46 404.446C651.46 399.211 655.759 394.821 661.261 394.821C666.591 394.821 671.062 399.042 671.062 404.446C670.89 409.85 666.591 414.072 661.261 414.072Z" fill="url(#paint13_linear_19_2)"/>
<path d="M171.911 415.929C165.377 415.929 159.875 410.695 159.875 404.277C159.875 397.86 165.205 392.457 171.911 392.457C178.445 392.457 183.775 397.692 183.775 404.277C183.947 410.695 178.617 415.929 171.911 415.929Z" fill="url(#paint14_linear_19_2)"/>
<path d="M171.911 414.072C166.581 414.072 162.11 409.85 162.11 404.446C162.11 399.211 166.409 394.821 171.911 394.821C177.241 394.821 181.712 399.042 181.712 404.446C181.712 409.85 177.241 414.072 171.911 414.072Z" fill="url(#paint15_linear_19_2)"/>
<path d="M404.722 644.411C404.722 637.994 410.052 632.759 416.586 632.759C423.12 632.759 428.622 637.994 428.622 644.411C428.622 650.828 423.292 656.063 416.586 656.063C410.052 656.232 404.722 650.997 404.722 644.411Z" fill="url(#paint16_linear_19_2)"/>
<path d="M406.613 644.411C406.613 639.176 410.912 634.785 416.414 634.785C421.744 634.785 426.215 639.007 426.215 644.411C426.215 649.815 421.916 654.036 416.414 654.036C410.912 654.036 406.613 649.646 406.613 644.411Z" fill="url(#paint17_linear_19_2)"/>
<path d="M404.722 163.975C404.722 157.558 410.052 152.323 416.586 152.323C423.12 152.323 428.622 157.558 428.622 163.975C428.622 170.392 423.292 175.627 416.586 175.627C410.052 175.627 404.722 170.392 404.722 163.975Z" fill="url(#paint18_linear_19_2)"/>
<path d="M406.613 163.806C406.613 158.571 410.912 154.181 416.414 154.181C421.744 154.181 426.215 158.402 426.215 163.806C426.215 169.041 421.916 173.432 416.414 173.432C410.912 173.432 406.613 169.21 406.613 163.806Z" fill="url(#paint19_linear_19_2)"/>
<path d="M704.419 404.784C704.419 248.241 575.289 121.42 415.898 121.42C256.507 121.42 127.377 248.241 127.377 404.784C127.377 561.327 256.507 688.148 415.898 688.148C575.117 688.148 704.419 561.327 704.419 404.784ZM151.793 406.473C151.793 262.258 270.778 145.399 417.618 145.399C564.457 145.399 683.442 262.258 683.442 406.473C683.442 550.688 564.457 667.546 417.618 667.546C270.778 667.546 151.793 550.688 151.793 406.473Z" stroke="url(#paint20_linear_19_2)" stroke-width="2.26967" stroke-miterlimit="10"/>
</g>
<path d="M694.618 38.336L685.333 29.217L689.975 24.6575L699.26 33.7765L694.618 38.336Z" fill="url(#paint21_linear_19_2)"/>
<path opacity="0.4" d="M685.333 29.217L686.537 28.0349C686.537 28.0349 690.491 34.9586 695.993 30.7368L699.26 33.9454L694.618 38.5049L685.333 29.217Z" fill="url(#paint22_linear_19_2)"/>
<path d="M692.555 28.71C692.555 28.71 690.319 31.243 688.6 32.4251C686.881 33.4384 684.301 34.1138 681.55 33.6072C678.799 33.1006 676.736 30.3987 675.704 29.2166C674.673 28.0345 676.392 25.5015 679.831 22.2929C683.27 19.0844 688.256 13.5117 689.632 14.356C691.523 15.5381 694.274 17.7334 694.274 20.2665C694.446 24.3194 695.134 25.8392 692.555 28.71Z" fill="url(#paint23_linear_19_2)"/>
<path opacity="0.4" d="M677.424 24.8262C675.704 26.8526 675.016 28.3724 675.704 29.2168C676.736 30.3989 678.799 33.2697 681.55 33.6074C684.301 34.114 686.881 33.4386 688.6 32.4253C689.804 31.7498 691.007 30.3989 691.867 29.5545C683.614 35.465 677.424 24.8262 677.424 24.8262Z" fill="url(#paint24_linear_19_2)"/>
<path d="M675.876 60.2888L666.591 51.1698L671.234 46.6104L680.519 55.7293L675.876 60.2888Z" fill="url(#paint25_linear_19_2)"/>
<path opacity="0.4" d="M666.591 51.1696L667.795 49.9875C667.795 49.9875 671.749 56.9112 677.252 52.6895L680.519 55.898L675.876 60.4575L666.591 51.1696Z" fill="url(#paint26_linear_19_2)"/>
<path d="M673.813 50.8321C673.813 50.8321 671.577 53.3651 669.858 54.5472C668.139 55.5604 665.559 56.2359 662.808 55.7293C660.057 55.2227 657.994 52.5208 656.962 51.3387C655.931 50.1566 657.65 47.6235 661.089 44.415C664.528 41.2065 669.514 35.6337 670.89 36.4781C672.781 37.6602 675.532 39.8555 675.532 42.3886C675.704 46.4414 676.22 47.7924 673.813 50.8321Z" fill="url(#paint27_linear_19_2)"/>
<path opacity="0.4" d="M658.682 46.7793C656.962 48.8057 656.275 50.3256 656.962 51.1699C657.994 52.352 660.057 55.2228 662.808 55.5605C665.559 56.0672 668.139 55.3917 669.858 54.3785C671.062 53.703 672.265 52.352 673.125 51.5077C664.872 57.587 658.682 46.7793 658.682 46.7793Z" fill="url(#paint28_linear_19_2)"/>
<path d="M654.039 78.5269L644.754 69.4079L649.397 64.8484L658.682 73.9674L654.039 78.5269Z" fill="url(#paint29_linear_19_2)"/>
<path opacity="0.4" d="M644.754 69.4077L645.958 68.2256C645.958 68.2256 649.913 75.1493 655.415 70.9275L658.682 74.136L654.039 78.6955L644.754 69.4077Z" fill="url(#paint30_linear_19_2)"/>
<path d="M652.148 69.0701C652.148 69.0701 649.913 71.6032 648.193 72.7852C646.474 73.7985 643.895 74.474 641.144 73.9673C638.392 73.4607 636.329 70.7588 635.298 69.5767C634.266 68.3946 635.985 65.8616 639.424 62.653C642.863 59.4445 647.849 53.8718 649.225 54.7161C651.116 55.8982 653.867 58.0935 653.867 60.6266C653.867 64.6795 654.555 66.0304 652.148 69.0701Z" fill="url(#paint31_linear_19_2)"/>
<path opacity="0.4" d="M636.845 65.0173C635.126 67.0438 634.438 68.5636 635.126 69.408C636.157 70.59 638.221 73.4608 640.972 73.7986C643.723 74.3052 646.302 73.6297 648.021 72.6165C649.225 71.941 650.429 70.59 651.288 69.7457C643.035 75.825 636.845 65.0173 636.845 65.0173Z" fill="url(#paint32_linear_19_2)"/>
<path d="M705.278 128.85L714.563 137.969L719.206 133.41L709.921 124.291L705.278 128.85Z" fill="url(#paint33_linear_19_2)"/>
<path opacity="0.4" d="M714.563 137.969L715.767 136.787C715.767 136.787 708.717 132.903 713.016 127.499L709.749 124.291L705.106 128.85L714.563 137.969Z" fill="url(#paint34_linear_19_2)"/>
<path d="M714.907 130.707C714.907 130.707 712.328 132.903 711.124 134.591C710.093 136.28 709.405 138.813 709.921 141.515C710.437 144.217 713.188 146.244 714.391 147.257C715.595 148.27 718.174 146.581 721.441 143.204C724.708 139.826 730.382 134.929 729.522 133.578C728.319 131.721 726.083 129.019 723.504 129.019C719.378 129.019 718.002 128.343 714.907 130.707Z" fill="url(#paint35_linear_19_2)"/>
<path opacity="0.4" d="M719.034 145.737C716.971 147.425 715.423 148.101 714.563 147.425C713.36 146.412 710.437 144.386 710.093 141.684C709.577 138.982 710.265 136.449 711.296 134.76C711.984 133.578 713.36 132.396 714.219 131.552C708.029 139.657 719.034 145.737 719.034 145.737Z" fill="url(#paint36_linear_19_2)"/>
<path d="M769.585 53.3651C761.848 34.1139 755.83 29.2167 755.83 29.2167C755.83 29.2167 750.843 23.3062 731.242 15.7071C721.613 11.9919 715.251 6.75694 708.029 16.8891C700.808 27.0214 641.659 90.8543 641.659 90.8543C641.659 90.8543 635.813 96.5959 636.845 100.142C637.877 103.52 638.736 107.572 634.438 113.314C630.139 119.056 620.854 130.539 620.854 130.539L636.845 146.244L652.836 161.949C652.836 161.949 664.356 152.83 670.374 148.608C676.22 144.386 680.347 145.23 683.785 146.244C687.224 147.257 693.242 141.515 693.242 141.515C693.242 141.515 758.065 83.424 768.553 76.3314C778.698 69.07 773.368 62.8218 769.585 53.3651Z" fill="url(#paint37_linear_19_2)"/>
<path d="M648.021 109.43C648.021 109.43 657.994 100.311 661.261 97.4402C664.528 94.5694 666.247 94.4005 667.623 94.2317C668.998 94.0628 672.609 90.6854 672.609 90.6854C672.609 90.6854 710.781 54.8849 716.455 50.1565C722.129 45.4282 720.925 43.4017 720.753 39.8555C720.409 32.594 718.69 31.4119 718.69 31.4119C718.69 31.4119 717.486 29.5544 710.093 29.3855C706.482 29.2166 704.419 27.8657 699.604 33.6073C694.79 39.18 658.338 76.6692 658.338 76.6692C658.338 76.6692 654.727 80.2154 654.727 81.5664C654.555 82.9174 654.383 84.6061 651.46 87.8146C651.46 87.8146 646.818 93.8939 646.302 95.5826C645.786 97.2713 646.13 105.715 646.13 105.715C646.13 105.715 646.302 111.119 648.021 109.43Z" fill="url(#paint38_linear_19_2)"/>
<path d="M673.985 134.761C673.985 134.761 683.27 124.966 686.193 121.758C689.116 118.549 689.288 116.86 689.46 115.509C689.632 114.158 693.07 110.612 693.07 110.612C693.07 110.612 729.522 73.1229 734.337 67.5502C739.151 61.9775 741.215 63.1596 744.825 63.3284C752.219 63.6662 753.423 65.3549 753.423 65.3549C753.423 65.3549 755.314 66.537 755.486 73.7984C755.658 77.3447 757.033 79.3711 751.187 84.0995C745.513 88.8278 707.342 124.628 707.342 124.628C707.342 124.628 703.731 128.175 702.355 128.175C700.98 128.343 699.26 128.512 695.993 131.383C695.993 131.383 689.804 135.943 688.084 136.449C686.365 136.956 677.768 136.618 677.768 136.618C677.768 136.618 672.093 136.618 673.985 134.761Z" fill="url(#paint39_linear_19_2)"/>
<path opacity="0.4" d="M652.836 161.78C652.836 161.78 664.356 152.661 670.374 148.439C676.22 144.217 680.347 145.062 683.786 146.075C687.224 147.088 693.242 141.347 693.242 141.347C693.242 141.347 758.065 83.2552 768.553 76.1626C778.87 69.0701 773.712 62.8219 769.757 53.3652C768.382 49.9878 767.006 46.9481 765.802 44.415C764.083 66.0304 707.686 114.327 677.939 129.188C648.193 144.048 627.388 122.771 627.388 122.771C624.121 126.993 621.026 130.539 621.026 130.539L637.017 146.244L652.836 161.78Z" fill="url(#paint40_linear_19_2)"/>
<path d="M84.2197 685.615C36.0757 638.331 11.6597 589.021 12.0036 539.205C12.3475 493.779 33.8404 456.965 53.9577 437.714C88.6903 404.277 138.554 400.562 168.3 398.367L171.567 398.198C199.766 396.003 226.417 373.881 233.638 354.798C236.389 347.368 246.878 321.024 264.416 294.512C284.705 263.946 306.886 244.526 330.098 236.927C356.406 228.315 372.912 227.808 380.822 235.576C385.464 240.136 388.903 249.255 379.446 266.986L379.102 267.493C368.958 286.406 347.809 325.922 361.908 340.951C362.252 341.458 362.768 341.795 363.112 342.133C375.491 354.292 390.794 346.186 390.794 346.186L394.061 349.395L431.889 386.546C431.889 386.546 417.446 399.211 412.803 417.956C412.115 421.502 407.473 448.352 429.997 470.474C430.857 471.319 431.717 472.163 432.749 473.007C435.156 475.034 437.391 477.06 439.282 479.087C452.006 491.583 458.024 502.391 457.508 511.848C457.164 518.771 453.554 525.02 446.504 530.592C441.69 534.476 433.608 538.191 424.151 542.582C406.785 550.688 385.292 560.82 379.962 573.654C377.383 579.902 376.867 590.541 376.351 602.869C375.148 630.395 373.256 667.884 346.949 699.294C326.316 723.78 285.909 750.968 234.498 753.332C182.743 755.19 132.02 732.561 84.2197 685.615Z" fill="url(#paint41_linear_19_2)"/>
<path d="M408.161 415.929C408.161 415.929 400.079 450.041 429.482 475.878C458.884 501.716 456.477 515.732 443.409 526.202C430.341 536.672 384.432 549.337 375.491 571.29C366.55 593.243 380.994 651.503 343.166 695.578C304.479 740.667 200.109 793.354 87.4867 682.069C-25.308 570.615 22.4922 474.359 57.2247 440.922C91.9572 407.655 142.68 404.784 171.739 402.589C200.797 400.393 229.856 377.934 238.109 355.981C246.362 334.027 279.719 258.036 331.646 240.98C383.745 223.924 386.324 243.006 374.976 264.115C363.627 285.224 341.791 325.922 358.297 343.484C375.32 361.553 388.215 349.732 388.215 349.732L428.278 389.079C428.278 389.248 410.74 401.744 408.161 415.929Z" fill="url(#paint42_linear_19_2)"/>
<path d="M359.501 629.888C359.501 629.888 318.75 746.915 145.775 701.995C145.775 701.995 296.741 791.328 359.501 629.888Z" fill="url(#paint43_linear_19_2)"/>
<path d="M344.026 254.152C344.026 254.152 303.275 265.297 286.081 295.018C268.887 324.74 252.724 390.43 215.068 407.993C177.585 425.555 95.2241 443.962 66.6815 481.62C66.6815 481.62 177.069 422.515 243.955 462.031C310.841 501.547 356.234 541.738 369.301 533.632C382.369 525.695 381.509 519.953 401.111 512.017C420.712 504.08 409.192 484.828 397.844 479.931C386.496 475.203 329.411 393.976 326.144 340.613C322.361 280.496 356.062 249.761 344.026 254.152Z" fill="url(#paint44_linear_19_2)"/>
<path d="M372.053 446.326L329.239 404.277L621.026 130.539L652.836 161.78L372.053 446.326Z" fill="url(#paint45_linear_19_2)"/>
<path d="M648.709 165.833L616.9 134.592L621.026 130.539L652.836 161.78L648.709 165.833Z" fill="#957729"/>
<path d="M501.698 242.5L537.978 278.131L540.041 276.105L503.761 240.473L501.698 242.5Z" fill="#957729"/>
<path d="M487.083 256.178L523.879 292.316L525.942 290.29L489.146 254.152L487.083 256.178Z" fill="#957729"/>
<path d="M472.983 269.519L510.295 306.164L512.358 304.137L475.047 267.492L472.983 269.519Z" fill="#957729"/>
<path d="M459.056 282.522L496.883 319.842L498.947 317.815L461.119 280.664L459.056 282.522Z" fill="#957729"/>
<path d="M446.332 294.512L484.675 332.17L486.567 330.143L448.395 292.654L446.332 294.512Z" fill="#957729"/>
<path d="M433.78 306.333L472.639 344.497L474.531 342.471L435.844 304.306L433.78 306.333Z" fill="#957729"/>
<path d="M421.916 317.478L461.119 355.98L463.183 353.954L423.98 315.451L421.916 317.478Z" fill="#957729"/>
<path d="M409.364 329.13L449.083 368.139L451.147 366.281L411.428 327.272L409.364 329.13Z" fill="#957729"/>
<path d="M400.423 337.574L440.486 376.92L442.549 374.894L402.487 335.547L400.423 337.574Z" fill="#957729"/>
<path d="M388.387 348.719L428.966 388.572L431.029 386.546L390.451 346.693L388.387 348.719Z" fill="#957729"/>
<path d="M377.899 358.682L418.821 398.873L420.885 396.847L379.962 356.825L377.899 358.682Z" fill="#957729"/>
<path d="M368.27 367.632L409.536 408.33L411.6 406.304L370.333 365.775L368.27 367.632Z" fill="#957729"/>
<path d="M358.469 376.92L400.08 417.787L402.143 415.76L360.533 374.894L358.469 376.92Z" fill="#957729"/>
<path d="M608.474 142.36L640.8 173.938L642.691 171.912L610.71 140.333L608.474 142.36Z" fill="#957729"/>
<path d="M588.701 160.935L621.714 193.19L623.777 191.332L590.764 158.909L588.701 160.935Z" fill="#957729"/>
<path d="M567.724 180.693L601.425 213.792L603.488 211.765L569.787 178.667L567.724 180.693Z" fill="#957729"/>
<path d="M549.326 197.918L583.715 231.692L585.778 229.666L551.39 195.892L549.326 197.918Z" fill="#957729"/>
<path d="M533.507 212.778L568.584 247.228L570.475 245.201L535.571 210.752L533.507 212.778Z" fill="#957729"/>
<path d="M517.345 227.808L553.109 262.764L555 260.906L519.408 225.95L517.345 227.808Z" fill="#957729"/>
<path opacity="0.7" d="M361.392 478.58C360.189 479.762 358.297 479.762 357.265 478.58L295.366 417.787C294.162 416.605 294.162 414.747 295.366 413.734L308.949 400.393C310.153 399.211 312.044 399.211 313.076 400.393L374.976 461.187C376.179 462.369 376.179 464.226 374.976 465.239L361.392 478.58Z" fill="url(#paint46_linear_19_2)"/>
<path d="M361.392 476.554C360.189 477.736 358.297 477.736 357.265 476.554L295.366 415.76C294.162 414.578 294.162 412.721 295.366 411.708L308.949 398.367C310.153 397.185 312.044 397.185 313.076 398.367L374.976 459.16C376.179 460.342 376.179 462.2 374.976 463.213L361.392 476.554Z" fill="url(#paint47_linear_19_2)"/>
<g opacity="0.5">
<path d="M311.013 399.549C311.185 399.549 311.529 399.549 311.701 399.887L373.6 460.68C373.772 460.849 373.944 461.186 373.944 461.355C373.944 461.524 373.944 461.862 373.6 462.031L360.017 475.372C359.845 475.54 359.501 475.709 359.329 475.709C359.157 475.709 358.813 475.709 358.641 475.372L296.742 414.578C296.57 414.409 296.398 414.072 296.398 413.903C296.398 413.734 296.398 413.396 296.742 413.227L310.325 399.887C310.497 399.549 310.841 399.549 311.013 399.549ZM311.013 397.522C310.325 397.522 309.465 397.86 308.949 398.367L295.366 411.708C294.162 412.89 294.162 414.747 295.366 415.76L357.265 476.554C357.781 477.06 358.641 477.398 359.329 477.398C360.017 477.398 360.876 477.06 361.392 476.554L374.976 463.213C376.179 462.031 376.179 460.173 374.976 459.16L313.076 398.367C312.388 397.86 311.701 397.522 311.013 397.522Z" fill="white"/>
</g>
<path d="M356.922 467.772L304.307 416.098L313.248 407.317L365.863 458.991L356.922 467.772Z" fill="url(#paint48_linear_19_2)"/>
<path d="M366.035 467.435C365.347 468.11 364.315 468.11 363.627 467.435C362.94 466.759 362.94 465.746 363.627 465.07C364.315 464.395 365.347 464.395 366.035 465.07C366.722 465.746 366.722 466.759 366.035 467.435Z" fill="url(#paint49_linear_19_2)"/>
<path d="M307.058 409.512C306.37 410.188 305.339 410.188 304.651 409.512C303.963 408.837 303.963 407.823 304.651 407.148C305.339 406.472 306.37 406.472 307.058 407.148C307.746 407.655 307.746 408.837 307.058 409.512Z" fill="url(#paint50_linear_19_2)"/>
<path opacity="0.7" d="M312.044 527.046C310.841 528.228 308.949 528.228 307.918 527.046L246.018 466.253C244.815 465.07 244.815 463.213 246.018 462.2L259.602 448.859C260.805 447.677 262.697 447.677 263.728 448.859L325.628 509.652C326.832 510.834 326.832 512.692 325.628 513.705L312.044 527.046Z" fill="url(#paint51_linear_19_2)"/>
<path d="M312.044 525.019C310.841 526.202 308.949 526.202 307.918 525.019L246.018 464.226C244.815 463.044 244.815 461.186 246.018 460.173L259.602 446.832C260.805 445.65 262.697 445.65 263.728 446.832L325.628 507.626C326.832 508.808 326.832 510.665 325.628 511.679L312.044 525.019Z" fill="url(#paint52_linear_19_2)"/>
<g opacity="0.5">
<path d="M261.665 447.846C261.837 447.846 262.181 447.846 262.353 448.183L324.252 508.977C324.596 509.314 324.596 509.99 324.252 510.328L310.669 523.668C310.497 523.837 310.153 524.006 309.981 524.006C309.809 524.006 309.465 524.006 309.293 523.668L247.394 462.875C247.05 462.537 247.05 461.862 247.394 461.524L260.977 448.183C261.149 448.015 261.493 447.846 261.665 447.846ZM261.665 445.988C260.977 445.988 260.118 446.326 259.602 446.832L246.018 460.173C244.815 461.355 244.815 463.213 246.018 464.226L307.918 525.019C308.434 525.526 309.293 525.864 309.981 525.864C310.669 525.864 311.529 525.526 312.044 525.019L325.628 511.679C326.832 510.496 326.832 508.639 325.628 507.626L263.728 446.832C263.041 446.326 262.353 445.988 261.665 445.988Z" fill="white"/>
</g>
<path d="M307.574 516.238L254.959 464.564L263.9 455.614L316.515 507.288L307.574 516.238Z" fill="url(#paint53_linear_19_2)"/>
<path d="M316.859 515.9C316.171 516.576 315.139 516.576 314.452 515.9C313.764 515.225 313.764 514.212 314.452 513.536C315.139 512.861 316.171 512.861 316.859 513.536C317.547 514.043 317.547 515.225 316.859 515.9Z" fill="url(#paint54_linear_19_2)"/>
<path d="M257.71 457.809C257.023 458.485 255.991 458.485 255.303 457.809C254.615 457.134 254.615 456.12 255.303 455.445C255.991 454.769 257.023 454.769 257.71 455.445C258.398 456.12 258.398 457.303 257.71 457.809Z" fill="url(#paint55_linear_19_2)"/>
<path opacity="0.7" d="M266.479 571.796C265.276 572.979 263.728 572.641 262.697 571.459L200.797 510.665C199.594 509.483 199.594 507.626 200.797 506.613L207.331 500.196C208.535 499.013 210.426 499.013 211.458 500.196L273.357 560.989C274.561 562.171 274.561 564.028 273.357 565.042L266.479 571.796Z" fill="url(#paint56_linear_19_2)"/>
<path d="M266.823 569.432C265.62 570.614 263.728 570.614 262.697 569.432L200.797 508.639C199.594 507.457 199.594 505.599 200.797 504.586L207.331 498.169C208.535 496.987 210.426 496.987 211.458 498.169L273.357 558.962C274.561 560.145 274.561 562.002 273.357 563.015L266.823 569.432Z" fill="url(#paint57_linear_19_2)"/>
<g opacity="0.5">
<path d="M209.222 499.351C209.394 499.351 209.738 499.351 209.91 499.689L271.81 560.482C272.154 560.82 272.154 561.495 271.81 561.833L265.276 568.25C265.104 568.419 264.76 568.588 264.588 568.588C264.416 568.588 264.072 568.588 263.9 568.25L202.001 507.457C201.829 507.288 201.657 506.95 201.657 506.781C201.657 506.613 201.657 506.275 202.001 506.106L208.535 499.689C208.879 499.351 209.05 499.351 209.222 499.351ZM209.222 497.325C208.535 497.325 207.675 497.662 207.159 498.169L200.625 504.586C199.422 505.768 199.422 507.626 200.625 508.639L262.525 569.432C263.041 569.939 263.9 570.277 264.588 570.277C265.276 570.277 266.136 569.939 266.651 569.432L273.185 563.015C274.389 561.833 274.389 559.976 273.185 558.962L211.286 498.169C210.77 497.662 210.082 497.325 209.222 497.325Z" fill="white"/>
</g>
<path d="M261.665 561.327L209.05 509.652L212.317 506.444L264.932 558.118L261.665 561.327Z" fill="url(#paint58_linear_19_2)"/>
<path d="M267.683 564.197C266.995 564.873 265.964 564.873 265.276 564.197C264.588 563.522 264.588 562.509 265.276 561.833C265.964 561.158 266.995 561.158 267.683 561.833C268.371 562.34 268.371 563.522 267.683 564.197Z" fill="url(#paint59_linear_19_2)"/>
<path d="M208.535 506.106C207.847 506.781 206.815 506.781 206.127 506.106C205.44 505.431 205.44 504.417 206.127 503.742C206.815 503.066 207.847 503.066 208.535 503.742C209.222 504.417 209.222 505.431 208.535 506.106Z" fill="url(#paint60_linear_19_2)"/>
<path opacity="0.4" d="M708.03 47.4547C704.247 47.4547 701.152 44.415 701.152 40.6999C701.152 36.9847 704.247 33.9451 708.03 33.9451C711.812 33.9451 714.907 36.9847 714.907 40.6999C714.907 44.415 711.812 47.4547 708.03 47.4547Z" fill="url(#paint61_radial_19_2)"/>
<path d="M709.233 46.1036C705.45 46.1036 702.355 43.0639 702.355 39.3488C702.355 35.6337 705.45 32.594 709.233 32.594C713.016 32.594 716.111 35.6337 716.111 39.3488C716.111 43.0639 713.016 46.1036 709.233 46.1036Z" fill="url(#paint62_radial_19_2)"/>
<path opacity="0.4" d="M687.224 69.4076C683.442 69.4076 680.347 66.3679 680.347 62.6528C680.347 58.9376 683.442 55.8979 687.224 55.8979C691.007 55.8979 694.102 58.9376 694.102 62.6528C694.274 66.3679 691.007 69.4076 687.224 69.4076Z" fill="url(#paint63_radial_19_2)"/>
<path d="M688.428 68.0567C684.645 68.0567 681.55 65.0171 681.55 61.3019C681.55 57.5868 684.645 54.5471 688.428 54.5471C692.211 54.5471 695.306 57.5868 695.306 61.3019C695.306 65.0171 692.211 68.0567 688.428 68.0567Z" fill="url(#paint64_radial_19_2)"/>
<path opacity="0.4" d="M664.7 89.1654C660.917 89.1654 657.822 86.1257 657.822 82.4106C657.822 78.6954 660.917 75.6558 664.7 75.6558C668.483 75.6558 671.578 78.6954 671.578 82.4106C671.578 86.1257 668.483 89.1654 664.7 89.1654Z" fill="url(#paint65_radial_19_2)"/>
<path d="M665.903 87.9832C662.121 87.9832 659.026 84.9436 659.026 81.2284C659.026 77.5133 662.121 74.4736 665.903 74.4736C669.686 74.4736 672.781 77.5133 672.781 81.2284C672.781 84.9436 669.686 87.9832 665.903 87.9832Z" fill="url(#paint66_radial_19_2)"/>
<path opacity="0.4" d="M715.251 96.7646C715.251 100.48 718.346 103.519 722.129 103.519C725.912 103.519 729.007 100.48 729.007 96.7646C729.007 93.0494 725.912 90.0098 722.129 90.0098C718.346 90.0098 715.251 93.0494 715.251 96.7646Z" fill="url(#paint67_radial_19_2)"/>
<path d="M716.455 95.5824C716.455 99.2976 719.55 102.337 723.332 102.337C727.115 102.337 730.21 99.2976 730.21 95.5824C730.21 91.8673 727.115 88.8276 723.332 88.8276C719.55 88.8276 716.455 91.8673 716.455 95.5824Z" fill="url(#paint68_radial_19_2)"/>
<path opacity="0.4" d="M694.962 118.887C694.962 122.602 698.057 125.641 701.84 125.641C705.622 125.641 708.717 122.602 708.717 118.887C708.717 115.171 705.622 112.132 701.84 112.132C698.057 112.132 694.962 115.171 694.962 118.887Z" fill="url(#paint69_radial_19_2)"/>
<path d="M696.165 117.705C696.165 121.42 699.26 124.459 703.043 124.459C706.826 124.459 709.921 121.42 709.921 117.705C709.921 113.989 706.826 110.95 703.043 110.95C699.26 110.95 696.165 113.989 696.165 117.705Z" fill="url(#paint70_radial_19_2)"/>
<path d="M704.247 44.2461L634.782 142.697L187.042 575.849" stroke="url(#paint71_linear_19_2)" stroke-width="1.3802" stroke-miterlimit="10"/>
<path d="M179.992 568.25L629.967 137.8L683.442 66.0303" stroke="url(#paint72_linear_19_2)" stroke-width="1.3802" stroke-miterlimit="10"/>
<path d="M173.974 562.34L625.325 133.241L660.917 85.957" stroke="url(#paint73_linear_19_2)" stroke-width="1.3802" stroke-miterlimit="10"/>
<path d="M740.527 79.8777L640.284 148.101L199.25 587.839" stroke="url(#paint74_linear_19_2)" stroke-width="1.3802" stroke-miterlimit="10"/>
<path d="M206.987 594.763L645.27 152.83L718.346 100.142" stroke="url(#paint75_linear_19_2)" stroke-width="1.3802" stroke-miterlimit="10"/>
<path d="M212.833 600.673L649.741 157.389L698.057 122.433" stroke="url(#paint76_linear_19_2)" stroke-width="1.3802" stroke-miterlimit="10"/>
<g opacity="0.7">
<path d="M223.666 613.169C221.087 615.703 216.788 615.703 214.037 613.001L157.639 557.611C154.888 554.909 154.888 550.688 157.468 548.154C160.047 545.621 164.345 545.621 167.096 548.323L223.494 603.713C226.245 606.415 226.245 610.636 223.666 613.169Z" fill="url(#paint77_linear_19_2)"/>
</g>
<path d="M223.666 611.819C221.087 614.352 216.788 614.352 214.037 611.65L157.639 556.26C154.888 553.558 154.888 549.337 157.468 546.804C160.047 544.27 164.345 544.27 167.096 546.972L223.494 602.362C226.245 605.064 226.245 609.285 223.666 611.819Z" fill="url(#paint78_linear_19_2)"/>
<path d="M219.711 608.272C218.851 609.117 217.648 609.117 216.788 608.272C215.928 607.428 215.928 606.246 216.788 605.402C217.648 604.557 218.851 604.557 219.711 605.402C220.571 606.077 220.571 607.428 219.711 608.272Z" fill="url(#paint79_linear_19_2)"/>
<path d="M163.829 553.221C162.97 554.065 161.766 554.065 160.906 553.221C160.047 552.376 160.047 551.194 160.906 550.35C161.766 549.505 162.97 549.505 163.829 550.35C164.689 551.194 164.689 552.545 163.829 553.221Z" fill="url(#paint80_linear_19_2)"/>
<path d="M162.282 546.972C163.657 546.972 164.861 547.479 165.721 548.323L222.118 603.713C224.01 605.57 224.01 608.61 222.29 610.468C221.43 611.312 220.227 611.819 219.023 611.819C217.648 611.819 216.444 611.312 215.584 610.468L159.187 555.078C158.327 554.234 157.811 552.883 157.811 551.701C157.811 550.519 158.327 549.337 159.187 548.323C159.875 547.479 161.078 546.972 162.282 546.972ZM162.282 544.946C160.562 544.946 158.843 545.621 157.639 546.804C155.06 549.337 155.06 553.558 157.811 556.26L214.209 611.65C215.584 613.001 217.304 613.676 219.195 613.676C220.915 613.676 222.634 613.001 223.838 611.819C226.417 609.285 226.417 605.064 223.666 602.362L167.268 546.972C165.893 545.621 164.173 544.946 162.282 544.946Z" fill="url(#paint81_linear_19_2)"/>
<path d="M311.013 619.249C311.013 619.249 273.873 639.007 263.385 642.047C251.864 645.424 177.069 675.99 93.5047 610.299C114.654 631.239 137.35 660.791 189.793 681.393C233.982 698.787 277.484 690.344 291.067 680.042C301.212 672.106 281.611 650.49 311.013 619.249Z" fill="url(#paint82_linear_19_2)"/>
<path opacity="0.4" d="M290.38 645.086C297.085 649.646 298.633 658.765 293.99 665.351C289.348 671.937 280.063 673.456 273.357 668.897C266.651 664.337 265.104 655.218 269.746 648.632C274.389 642.047 283.674 640.358 290.38 645.086Z" fill="black"/>
<path d="M290.38 643.904C296.741 648.295 298.289 657.076 293.818 663.324C289.348 669.572 280.407 671.092 274.045 666.702C267.683 662.311 266.136 653.53 270.606 647.282C275.077 641.033 284.018 639.513 290.38 643.904Z" fill="url(#paint83_linear_19_2)"/>
<path d="M292.271 662.48C288.316 668.052 280.579 669.235 274.905 665.351C269.231 661.467 268.027 653.867 271.982 648.295C275.936 642.722 283.674 641.54 289.348 645.424C295.022 649.308 296.226 656.907 292.271 662.48Z" fill="url(#paint84_linear_19_2)"/>
<path d="M288.488 659.778C286.081 663.155 281.095 664 277.656 661.635C274.217 659.271 273.357 654.374 275.764 650.997C278.172 647.619 283.158 646.775 286.597 649.139C290.208 651.503 291.067 656.4 288.488 659.778Z" fill="url(#paint85_radial_19_2)"/>
<path opacity="0.4" d="M336.117 273.572C342.822 278.131 344.37 287.25 339.727 293.836C335.085 300.422 325.8 301.942 319.094 297.383C312.388 292.823 310.841 283.704 315.483 277.118C320.298 270.532 329.583 269.012 336.117 273.572Z" fill="black"/>
<path d="M336.117 272.559C342.478 276.949 344.026 285.731 339.555 291.979C335.085 298.227 326.144 299.747 319.782 295.356C313.42 290.966 311.873 282.184 316.343 275.936C320.986 269.519 329.755 268.168 336.117 272.559Z" fill="url(#paint86_linear_19_2)"/>
<path d="M338.18 290.966C334.225 296.538 326.488 297.72 320.814 293.836C315.139 289.952 313.936 282.353 317.89 276.78C321.845 271.208 329.583 270.026 335.257 273.91C340.759 277.794 342.134 285.562 338.18 290.966Z" fill="url(#paint87_linear_19_2)"/>
<path d="M334.397 288.432C331.99 291.81 327.004 292.654 323.565 290.29C320.126 287.926 319.266 283.029 321.673 279.651C324.081 276.274 329.067 275.429 332.506 277.794C335.945 280.158 336.804 284.886 334.397 288.432Z" fill="url(#paint88_radial_19_2)"/>
<path opacity="0.4" d="M245.846 659.271C252.552 663.831 254.1 672.95 249.457 679.536C244.815 686.122 235.53 687.642 228.824 683.082C222.118 678.523 220.571 669.404 225.213 662.818C230.028 656.232 239.141 654.712 245.846 659.271Z" fill="black"/>
<path d="M245.846 658.258C252.208 662.649 253.756 671.43 249.285 677.678C244.815 683.926 235.874 685.446 229.512 681.056C223.15 676.665 221.602 667.884 226.073 661.636C230.543 655.219 239.484 653.868 245.846 658.258Z" fill="url(#paint89_linear_19_2)"/>
<path d="M247.91 676.665C243.955 682.238 236.218 683.42 230.543 679.536C224.869 675.652 223.666 668.052 227.62 662.48C231.575 656.907 239.312 655.725 244.987 659.609C250.489 663.493 251.864 671.261 247.91 676.665Z" fill="url(#paint90_linear_19_2)"/>
<path d="M243.955 674.132C241.548 677.509 236.561 678.354 233.123 675.989C229.684 673.625 228.824 668.728 231.231 665.351C233.638 661.973 238.625 661.129 242.064 663.493C245.674 665.857 246.534 670.586 243.955 674.132Z" fill="url(#paint91_radial_19_2)"/>
<path opacity="0.4" d="M199.078 662.649C205.784 667.208 207.331 676.327 202.689 682.913C198.046 689.499 188.761 691.019 182.055 686.459C175.35 681.9 173.802 672.781 178.445 666.195C183.087 659.609 192.372 657.92 199.078 662.649Z" fill="black"/>
<path d="M199.078 661.636C205.44 666.026 206.987 674.807 202.517 681.056C198.046 687.304 189.105 688.824 182.743 684.433C176.381 680.042 174.834 671.261 179.304 665.013C183.775 658.596 192.716 657.076 199.078 661.636Z" fill="url(#paint92_linear_19_2)"/>
<path d="M200.969 680.042C197.014 685.615 189.277 686.797 183.603 682.913C177.929 679.029 176.725 671.43 180.68 665.857C184.635 660.285 192.372 659.102 198.046 662.987C203.72 666.871 204.924 674.47 200.969 680.042Z" fill="url(#paint93_linear_19_2)"/>
<path d="M197.186 677.34C194.779 680.718 189.793 681.562 186.354 679.198C182.915 676.834 182.055 671.937 184.463 668.559C186.87 665.182 191.856 664.338 195.295 666.702C198.906 669.235 199.766 673.963 197.186 677.34Z" fill="url(#paint94_radial_19_2)"/>
</g>
<defs>
<linearGradient id="paint0_linear_19_2" x1="592.603" y1="343.217" x2="625.257" y2="348.199" gradientUnits="userSpaceOnUse">
<stop stop-color="#B08F2F"/>
<stop offset="0.2095" stop-color="#F7ECA7"/>
<stop offset="0.3532" stop-color="#CFAB31"/>
<stop offset="0.713" stop-color="#7D4421"/>
<stop offset="1" stop-color="#BFA146"/>
</linearGradient>
<linearGradient id="paint1_linear_19_2" x1="312.881" y1="151.144" x2="355.67" y2="170.649" gradientUnits="userSpaceOnUse">
<stop stop-color="white"/>
<stop offset="0.197" stop-color="#999A9D"/>
<stop offset="0.2375" stop-color="#9F9FA2"/>
<stop offset="0.2892" stop-color="#AEAFB1"/>
<stop offset="0.3466" stop-color="#C8C8C9"/>
<stop offset="0.3996" stop-color="#E7E6E5"/>
<stop offset="0.5402" stop-color="#A2A3A4"/>
<stop offset="0.643" stop-color="#747678"/>
<stop offset="0.8117" stop-color="#8F9094"/>
<stop offset="1" stop-color="#B2B2B7"/>
</linearGradient>
<linearGradient id="paint2_linear_19_2" x1="485.799" y1="147.969" x2="506.092" y2="131.81" gradientUnits="userSpaceOnUse">
<stop stop-color="#836137"/>
<stop offset="0.162" stop-color="#9F8052"/>
<stop offset="0.2645" stop-color="#AC8F5F"/>
<stop offset="0.4184" stop-color="#836137"/>
<stop offset="0.4482" stop-color="#765733"/>
<stop offset="0.5124" stop-color="#60472C"/>
<stop offset="0.5739" stop-color="#533C27"/>
<stop offset="0.6291" stop-color="#4E3926"/>
<stop offset="0.7921" stop-color="#836137"/>
<stop offset="0.8509" stop-color="#87663B"/>
<stop offset="0.9167" stop-color="#937347"/>
<stop offset="0.9856" stop-color="#A7895A"/>
<stop offset="1" stop-color="#AC8F5F"/>
</linearGradient>
<linearGradient id="paint3_linear_19_2" x1="692.819" y1="291.683" x2="708.567" y2="298.845" gradientUnits="userSpaceOnUse">
<stop stop-color="white"/>
<stop offset="0.197" stop-color="#999A9D"/>
<stop offset="0.2375" stop-color="#9F9FA2"/>
<stop offset="0.2892" stop-color="#AEAFB1"/>
<stop offset="0.3466" stop-color="#C8C8C9"/>
<stop offset="0.3996" stop-color="#E7E6E5"/>
<stop offset="0.5402" stop-color="#A2A3A4"/>
<stop offset="0.643" stop-color="#747678"/>
<stop offset="0.8117" stop-color="#8F9094"/>
<stop offset="1" stop-color="#B2B2B7"/>
</linearGradient>
<linearGradient id="paint4_linear_19_2" x1="519.664" y1="532.407" x2="523.158" y2="534.42" gradientUnits="userSpaceOnUse">
<stop stop-color="#766BB2"/>
<stop offset="0.3893" stop-color="#6016AD"/>
<stop offset="0.5775" stop-color="#4E188A"/>
<stop offset="0.8576" stop-color="#361B5A"/>
<stop offset="0.9975" stop-color="#2D1C48"/>
</linearGradient>
<linearGradient id="paint5_linear_19_2" x1="519.962" y1="540.831" x2="523.456" y2="542.844" gradientUnits="userSpaceOnUse">
<stop stop-color="#766BB2"/>
<stop offset="0.3893" stop-color="#6016AD"/>
<stop offset="0.5775" stop-color="#4E188A"/>
<stop offset="0.8576" stop-color="#361B5A"/>
<stop offset="0.9975" stop-color="#2D1C48"/>
</linearGradient>
<linearGradient id="paint6_linear_19_2" x1="494.716" y1="538.772" x2="513.605" y2="549.654" gradientUnits="userSpaceOnUse">
<stop stop-color="#766BB2"/>
<stop offset="0.3893" stop-color="#6016AD"/>
<stop offset="0.5775" stop-color="#4E188A"/>
<stop offset="0.8576" stop-color="#361B5A"/>
<stop offset="0.9975" stop-color="#2D1C48"/>
</linearGradient>
<linearGradient id="paint7_linear_19_2" x1="417.597" y1="145.369" x2="417.597" y2="667.558" gradientUnits="userSpaceOnUse">
<stop/>
<stop offset="0.5031" stop-color="#2A2A2A"/>
<stop offset="1" stop-color="#636363"/>
</linearGradient>
<linearGradient id="paint8_linear_19_2" x1="258.709" y1="562.518" x2="570.781" y2="244.767" gradientUnits="userSpaceOnUse">
<stop stop-color="#505050"/>
<stop offset="0.5031" stop-color="#A4A4A4"/>
<stop offset="0.9961" stop-color="#D4D4D4"/>
</linearGradient>
<linearGradient id="paint9_linear_19_2" x1="417.598" y1="617.171" x2="417.598" y2="195.728" gradientUnits="userSpaceOnUse">
<stop/>
<stop offset="0.5031" stop-color="#2A2A2A"/>
<stop offset="1" stop-color="#656565"/>
</linearGradient>
<linearGradient id="paint10_linear_19_2" x1="542.688" y1="280.2" x2="299.425" y2="527.89" gradientUnits="userSpaceOnUse">
<stop/>
<stop offset="0.5031" stop-color="#686868"/>
<stop offset="0.539" stop-color="#7A7A7A"/>
<stop offset="0.6122" stop-color="#969696"/>
<stop offset="0.6904" stop-color="#ADADAD"/>
<stop offset="0.7749" stop-color="#BDBDBD"/>
<stop offset="0.8701" stop-color="#C6C6C6"/>
<stop offset="0.9989" stop-color="#C9C9C9"/>
</linearGradient>
<linearGradient id="paint11_linear_19_2" x1="394.248" y1="334.294" x2="439.442" y2="479.101" gradientUnits="userSpaceOnUse">
<stop offset="0.00332927"/>
<stop offset="0.6442" stop-color="#2A2A2A"/>
<stop offset="0.7411" stop-color="#343434"/>
<stop offset="0.9081" stop-color="#505050"/>
<stop offset="1" stop-color="#636363"/>
</linearGradient>
<linearGradient id="paint12_linear_19_2" x1="661.254" y1="392.454" x2="661.254" y2="415.918" gradientUnits="userSpaceOnUse">
<stop stop-color="#111111"/>
<stop offset="0.5031" stop-color="#505050"/>
<stop offset="1" stop-color="#ABABAB"/>
</linearGradient>
<linearGradient id="paint13_linear_19_2" x1="661.188" y1="394.899" x2="661.188" y2="414.07" gradientUnits="userSpaceOnUse">
<stop offset="0.00332927"/>
<stop offset="0.6442" stop-color="#2A2A2A"/>
<stop offset="0.7411" stop-color="#343434"/>
<stop offset="0.9081" stop-color="#505050"/>
<stop offset="1" stop-color="#636363"/>
</linearGradient>
<linearGradient id="paint14_linear_19_2" x1="171.955" y1="392.454" x2="171.955" y2="415.918" gradientUnits="userSpaceOnUse">
<stop stop-color="#111111"/>
<stop offset="0.5031" stop-color="#505050"/>
<stop offset="1" stop-color="#ABABAB"/>
</linearGradient>
<linearGradient id="paint15_linear_19_2" x1="171.89" y1="394.899" x2="171.89" y2="414.07" gradientUnits="userSpaceOnUse">
<stop offset="0.00332927"/>
<stop offset="0.6442" stop-color="#2A2A2A"/>
<stop offset="0.7411" stop-color="#343434"/>
<stop offset="0.9081" stop-color="#505050"/>
<stop offset="1" stop-color="#636363"/>
</linearGradient>
<linearGradient id="paint16_linear_19_2" x1="428.552" y1="644.476" x2="404.664" y2="644.476" gradientUnits="userSpaceOnUse">
<stop stop-color="#111111"/>
<stop offset="0.5031" stop-color="#505050"/>
<stop offset="1" stop-color="#ABABAB"/>
</linearGradient>
<linearGradient id="paint17_linear_19_2" x1="426.062" y1="644.405" x2="406.543" y2="644.405" gradientUnits="userSpaceOnUse">
<stop offset="0.00332927"/>
<stop offset="0.6442" stop-color="#2A2A2A"/>
<stop offset="0.7411" stop-color="#343434"/>
<stop offset="0.9081" stop-color="#505050"/>
<stop offset="1" stop-color="#636363"/>
</linearGradient>
<linearGradient id="paint18_linear_19_2" x1="428.552" y1="163.922" x2="404.664" y2="163.922" gradientUnits="userSpaceOnUse">
<stop stop-color="#111111"/>
<stop offset="0.5031" stop-color="#505050"/>
<stop offset="1" stop-color="#ABABAB"/>
</linearGradient>
<linearGradient id="paint19_linear_19_2" x1="426.062" y1="163.852" x2="406.543" y2="163.852" gradientUnits="userSpaceOnUse">
<stop offset="0.00332927"/>
<stop offset="0.6442" stop-color="#2A2A2A"/>
<stop offset="0.7411" stop-color="#343434"/>
<stop offset="0.9081" stop-color="#505050"/>
<stop offset="1" stop-color="#636363"/>
</linearGradient>
<linearGradient id="paint20_linear_19_2" x1="415.826" y1="118.959" x2="415.826" y2="690.57" gradientUnits="userSpaceOnUse">
<stop offset="0.00581045" stop-color="#D4D4D4" stop-opacity="0"/>
<stop offset="0.4969" stop-color="#A4A4A4"/>
<stop offset="1" stop-color="#505050"/>
</linearGradient>
<linearGradient id="paint21_linear_19_2" x1="694.493" y1="29.2776" x2="690.285" y2="33.5621" gradientUnits="userSpaceOnUse">
<stop stop-color="white"/>
<stop offset="0.4395" stop-color="#999A9D"/>
<stop offset="0.6349" stop-color="#8A8B8D"/>
<stop offset="1" stop-color="#656564"/>
</linearGradient>
<linearGradient id="paint22_linear_19_2" x1="694.493" y1="29.2776" x2="690.285" y2="33.5622" gradientUnits="userSpaceOnUse">
<stop stop-color="#A5A4A5"/>
<stop offset="0.0790802" stop-color="#B8B8B8"/>
<stop offset="0.2192" stop-color="#E3E3E3"/>
<stop offset="0.6916" stop-color="#6E6E6F"/>
<stop offset="0.7765" stop-color="#767778"/>
<stop offset="0.913" stop-color="#8D8E8F"/>
<stop offset="1" stop-color="#9FA1A2"/>
</linearGradient>
<linearGradient id="paint23_linear_19_2" x1="693.676" y1="18.2628" x2="680.458" y2="31.7216" gradientUnits="userSpaceOnUse">
<stop stop-color="#A5A4A5"/>
<stop offset="0.0790802" stop-color="#B8B8B8"/>
<stop offset="0.2192" stop-color="#E3E3E3"/>
<stop offset="0.6916" stop-color="#6E6E6F"/>
<stop offset="0.7765" stop-color="#767778"/>
<stop offset="0.913" stop-color="#8D8E8F"/>
<stop offset="1" stop-color="#9FA1A2"/>
</linearGradient>
<linearGradient id="paint24_linear_19_2" x1="689.669" y1="27.6503" x2="677.856" y2="29.9604" gradientUnits="userSpaceOnUse">
<stop stop-color="#E3E3E3" stop-opacity="0"/>
<stop offset="1" stop-color="#6E6E6F"/>
</linearGradient>
<linearGradient id="paint25_linear_19_2" x1="675.727" y1="51.301" x2="671.519" y2="55.5852" gradientUnits="userSpaceOnUse">
<stop stop-color="white"/>
<stop offset="0.4395" stop-color="#999A9D"/>
<stop offset="0.6349" stop-color="#8A8B8D"/>
<stop offset="1" stop-color="#656564"/>
</linearGradient>
<linearGradient id="paint26_linear_19_2" x1="675.727" y1="51.3007" x2="671.519" y2="55.585" gradientUnits="userSpaceOnUse">
<stop stop-color="#A5A4A5"/>
<stop offset="0.0790802" stop-color="#B8B8B8"/>
<stop offset="0.2192" stop-color="#E3E3E3"/>
<stop offset="0.6916" stop-color="#6E6E6F"/>
<stop offset="0.7765" stop-color="#767778"/>
<stop offset="0.913" stop-color="#8D8E8F"/>
<stop offset="1" stop-color="#9FA1A2"/>
</linearGradient>
<linearGradient id="paint27_linear_19_2" x1="674.911" y1="40.2862" x2="661.692" y2="53.7454" gradientUnits="userSpaceOnUse">
<stop stop-color="#A5A4A5"/>
<stop offset="0.0790802" stop-color="#B8B8B8"/>
<stop offset="0.2192" stop-color="#E3E3E3"/>
<stop offset="0.6916" stop-color="#6E6E6F"/>
<stop offset="0.7765" stop-color="#767778"/>
<stop offset="0.913" stop-color="#8D8E8F"/>
<stop offset="1" stop-color="#9FA1A2"/>
</linearGradient>
<linearGradient id="paint28_linear_19_2" x1="670.903" y1="49.6736" x2="659.09" y2="51.9839" gradientUnits="userSpaceOnUse">
<stop stop-color="#E3E3E3" stop-opacity="0"/>
<stop offset="1" stop-color="#6E6E6F"/>
</linearGradient>
<linearGradient id="paint29_linear_19_2" x1="653.939" y1="69.556" x2="649.731" y2="73.8399" gradientUnits="userSpaceOnUse">
<stop stop-color="white"/>
<stop offset="0.4395" stop-color="#999A9D"/>
<stop offset="0.6349" stop-color="#8A8B8D"/>
<stop offset="1" stop-color="#656564"/>
</linearGradient>
<linearGradient id="paint30_linear_19_2" x1="653.939" y1="69.5559" x2="649.731" y2="73.8399" gradientUnits="userSpaceOnUse">
<stop stop-color="#A5A4A5"/>
<stop offset="0.0790802" stop-color="#B8B8B8"/>
<stop offset="0.2192" stop-color="#E3E3E3"/>
<stop offset="0.6916" stop-color="#6E6E6F"/>
<stop offset="0.7765" stop-color="#767778"/>
<stop offset="0.913" stop-color="#8D8E8F"/>
<stop offset="1" stop-color="#9FA1A2"/>
</linearGradient>
<linearGradient id="paint31_linear_19_2" x1="653.122" y1="58.541" x2="639.904" y2="72" gradientUnits="userSpaceOnUse">
<stop stop-color="#A5A4A5"/>
<stop offset="0.0790802" stop-color="#B8B8B8"/>
<stop offset="0.2192" stop-color="#E3E3E3"/>
<stop offset="0.6916" stop-color="#6E6E6F"/>
<stop offset="0.7765" stop-color="#767778"/>
<stop offset="0.913" stop-color="#8D8E8F"/>
<stop offset="1" stop-color="#9FA1A2"/>
</linearGradient>
<linearGradient id="paint32_linear_19_2" x1="649.115" y1="67.9288" x2="637.302" y2="70.2388" gradientUnits="userSpaceOnUse">
<stop stop-color="#E3E3E3" stop-opacity="0"/>
<stop offset="1" stop-color="#6E6E6F"/>
</linearGradient>
<linearGradient id="paint33_linear_19_2" x1="714.408" y1="128.945" x2="710.201" y2="133.229" gradientUnits="userSpaceOnUse">
<stop stop-color="white"/>
<stop offset="0.4395" stop-color="#999A9D"/>
<stop offset="0.6349" stop-color="#8A8B8D"/>
<stop offset="1" stop-color="#656564"/>
</linearGradient>
<linearGradient id="paint34_linear_19_2" x1="714.408" y1="128.945" x2="710.2" y2="133.229" gradientUnits="userSpaceOnUse">
<stop stop-color="#A5A4A5"/>
<stop offset="0.0790802" stop-color="#B8B8B8"/>
<stop offset="0.2192" stop-color="#E3E3E3"/>
<stop offset="0.6916" stop-color="#6E6E6F"/>
<stop offset="0.7765" stop-color="#767778"/>
<stop offset="0.913" stop-color="#8D8E8F"/>
<stop offset="1" stop-color="#9FA1A2"/>
</linearGradient>
<linearGradient id="paint35_linear_19_2" x1="725.623" y1="129.746" x2="712.405" y2="143.205" gradientUnits="userSpaceOnUse">
<stop stop-color="#A5A4A5"/>
<stop offset="0.0790802" stop-color="#B8B8B8"/>
<stop offset="0.2192" stop-color="#E3E3E3"/>
<stop offset="0.6916" stop-color="#6E6E6F"/>
<stop offset="0.7765" stop-color="#767778"/>
<stop offset="0.913" stop-color="#8D8E8F"/>
<stop offset="1" stop-color="#9FA1A2"/>
</linearGradient>
<linearGradient id="paint36_linear_19_2" x1="716.065" y1="133.682" x2="713.871" y2="145.313" gradientUnits="userSpaceOnUse">
<stop stop-color="#E3E3E3" stop-opacity="0"/>
<stop offset="1" stop-color="#6E6E6F"/>
</linearGradient>
<linearGradient id="paint37_linear_19_2" x1="666.043" y1="57.8824" x2="725.652" y2="118.576" gradientUnits="userSpaceOnUse">
<stop stop-color="#766BB2"/>
<stop offset="0.3893" stop-color="#6016AD"/>
<stop offset="0.5775" stop-color="#4E188A"/>
<stop offset="0.8576" stop-color="#361B5A"/>
<stop offset="0.9975" stop-color="#2D1C48"/>
</linearGradient>
<linearGradient id="paint38_linear_19_2" x1="672.197" y1="59.9997" x2="689.009" y2="77.1169" gradientUnits="userSpaceOnUse">
<stop stop-color="#626364"/>
<stop offset="0.1519" stop-color="#525354"/>
<stop offset="0.4478" stop-color="#292A2A"/>
<stop offset="0.7088"/>
<stop offset="0.7906" stop-color="#1B1B1C"/>
<stop offset="0.9661" stop-color="#5E6062"/>
<stop offset="1" stop-color="#6C6E70"/>
</linearGradient>
<linearGradient id="paint39_linear_19_2" x1="724.207" y1="111.08" x2="707.395" y2="93.9624" gradientUnits="userSpaceOnUse">
<stop stop-color="#626364"/>
<stop offset="0.1519" stop-color="#525354"/>
<stop offset="0.4478" stop-color="#292A2A"/>
<stop offset="0.7088"/>
<stop offset="0.7906" stop-color="#1B1B1C"/>
<stop offset="0.9661" stop-color="#5E6062"/>
<stop offset="1" stop-color="#6C6E70"/>
</linearGradient>
<linearGradient id="paint40_linear_19_2" x1="731.147" y1="47.3743" x2="674.465" y2="139.797" gradientUnits="userSpaceOnUse">
<stop stop-color="#626364"/>
<stop offset="0.624" stop-color="#222223"/>
<stop offset="1"/>
</linearGradient>
<linearGradient id="paint41_linear_19_2" x1="453.522" y1="320.1" x2="89.4569" y2="690.79" gradientUnits="userSpaceOnUse">
<stop stop-color="#C9CACB"/>
<stop offset="0.197" stop-color="#858889"/>
<stop offset="0.2395" stop-color="#8B8D8E"/>
<stop offset="0.2938" stop-color="#9A9D9D"/>
<stop offset="0.3541" stop-color="#B4B6B6"/>
<stop offset="0.4064" stop-color="#D1D1D1"/>
<stop offset="0.5694" stop-color="#AEAFAF"/>
<stop offset="0.7468" stop-color="#8E9091"/>
<stop offset="0.8967" stop-color="#7B7D7F"/>
<stop offset="1" stop-color="#747678"/>
</linearGradient>
<linearGradient id="paint42_linear_19_2" x1="135.124" y1="364.687" x2="403.152" y2="637.592" gradientUnits="userSpaceOnUse">
<stop stop-color="#766BB2"/>
<stop offset="0.3893" stop-color="#6016AD"/>
<stop offset="0.5775" stop-color="#4E188A"/>
<stop offset="0.8576" stop-color="#361B5A"/>
<stop offset="0.9975" stop-color="#2D1C48"/>
</linearGradient>
<linearGradient id="paint43_linear_19_2" x1="329.66" y1="673.551" x2="140.256" y2="709.632" gradientUnits="userSpaceOnUse">
<stop stop-color="white"/>
<stop offset="0.9948" stop-color="white" stop-opacity="0"/>
</linearGradient>
<linearGradient id="paint44_linear_19_2" x1="194.077" y1="355.605" x2="375.2" y2="540.024" gradientUnits="userSpaceOnUse">
<stop stop-color="white" stop-opacity="0"/>
<stop offset="0.5044" stop-color="white"/>
<stop offset="0.9948" stop-color="white" stop-opacity="0"/>
</linearGradient>
<linearGradient id="paint45_linear_19_2" x1="471.842" y1="264.205" x2="513.894" y2="307.023" gradientUnits="userSpaceOnUse">
<stop stop-color="#8B5F15"/>
<stop offset="0.2561" stop-color="#7B5513"/>
<stop offset="0.6996" stop-color="#563F0F"/>
<stop offset="0.8813" stop-color="#714F11"/>
<stop offset="0.9897" stop-color="#845A13"/>
</linearGradient>
<linearGradient id="paint46_linear_19_2" x1="310.946" y1="398.378" x2="359.76" y2="484.66" gradientUnits="userSpaceOnUse">
<stop stop-color="white"/>
<stop offset="0.197" stop-color="#999A9D"/>
<stop offset="0.2375" stop-color="#9F9FA2"/>
<stop offset="0.2892" stop-color="#AEAFB1"/>
<stop offset="0.3466" stop-color="#C8C8C9"/>
<stop offset="0.3996" stop-color="#E7E6E5"/>
<stop offset="0.5402" stop-color="#A2A3A4"/>
<stop offset="0.643" stop-color="#747678"/>
<stop offset="0.8117" stop-color="#8F9094"/>
<stop offset="1" stop-color="#B2B2B7"/>
</linearGradient>
<linearGradient id="paint47_linear_19_2" x1="310.946" y1="396.334" x2="359.76" y2="482.617" gradientUnits="userSpaceOnUse">
<stop stop-color="white"/>
<stop offset="0.197" stop-color="#999A9D"/>
<stop offset="0.2375" stop-color="#9F9FA2"/>
<stop offset="0.2892" stop-color="#AEAFB1"/>
<stop offset="0.3466" stop-color="#C8C8C9"/>
<stop offset="0.3996" stop-color="#E7E6E5"/>
<stop offset="0.5402" stop-color="#A2A3A4"/>
<stop offset="0.643" stop-color="#747678"/>
<stop offset="0.8117" stop-color="#8F9094"/>
<stop offset="1" stop-color="#B2B2B7"/>
</linearGradient>
<linearGradient id="paint48_linear_19_2" x1="308.787" y1="411.667" x2="360.449" y2="464.269" gradientUnits="userSpaceOnUse">
<stop stop-color="#626364"/>
<stop offset="0.2143" stop-color="#525354"/>
<stop offset="0.6318" stop-color="#292A2A"/>
<stop offset="1"/>
</linearGradient>
<linearGradient id="paint49_linear_19_2" x1="363.651" y1="465.029" x2="366.054" y2="467.476" gradientUnits="userSpaceOnUse">
<stop stop-color="#626364"/>
<stop offset="0.2143" stop-color="#525354"/>
<stop offset="0.6318" stop-color="#292A2A"/>
<stop offset="1"/>
</linearGradient>
<linearGradient id="paint50_linear_19_2" x1="304.617" y1="407.051" x2="307.02" y2="409.498" gradientUnits="userSpaceOnUse">
<stop stop-color="#626364"/>
<stop offset="0.2143" stop-color="#525354"/>
<stop offset="0.6318" stop-color="#292A2A"/>
<stop offset="1"/>
</linearGradient>
<linearGradient id="paint51_linear_19_2" x1="261.635" y1="446.807" x2="310.449" y2="533.09" gradientUnits="userSpaceOnUse">
<stop stop-color="white"/>
<stop offset="0.197" stop-color="#999A9D"/>
<stop offset="0.2375" stop-color="#9F9FA2"/>
<stop offset="0.2892" stop-color="#AEAFB1"/>
<stop offset="0.3466" stop-color="#C8C8C9"/>
<stop offset="0.3996" stop-color="#E7E6E5"/>
<stop offset="0.5402" stop-color="#A2A3A4"/>
<stop offset="0.643" stop-color="#747678"/>
<stop offset="0.8117" stop-color="#8F9094"/>
<stop offset="1" stop-color="#B2B2B7"/>
</linearGradient>
<linearGradient id="paint52_linear_19_2" x1="261.635" y1="444.763" x2="310.449" y2="531.046" gradientUnits="userSpaceOnUse">
<stop stop-color="white"/>
<stop offset="0.197" stop-color="#999A9D"/>
<stop offset="0.2375" stop-color="#9F9FA2"/>
<stop offset="0.2892" stop-color="#AEAFB1"/>
<stop offset="0.3466" stop-color="#C8C8C9"/>
<stop offset="0.3996" stop-color="#E7E6E5"/>
<stop offset="0.5402" stop-color="#A2A3A4"/>
<stop offset="0.643" stop-color="#747678"/>
<stop offset="0.8117" stop-color="#8F9094"/>
<stop offset="1" stop-color="#B2B2B7"/>
</linearGradient>
<linearGradient id="paint53_linear_19_2" x1="259.477" y1="460.097" x2="311.138" y2="512.699" gradientUnits="userSpaceOnUse">
<stop stop-color="#626364"/>
<stop offset="0.2143" stop-color="#525354"/>
<stop offset="0.6318" stop-color="#292A2A"/>
<stop offset="1"/>
</linearGradient>
<linearGradient id="paint54_linear_19_2" x1="314.34" y1="513.459" x2="316.743" y2="515.906" gradientUnits="userSpaceOnUse">
<stop stop-color="#626364"/>
<stop offset="0.2143" stop-color="#525354"/>
<stop offset="0.6318" stop-color="#292A2A"/>
<stop offset="1"/>
</linearGradient>
<linearGradient id="paint55_linear_19_2" x1="255.306" y1="455.481" x2="257.709" y2="457.928" gradientUnits="userSpaceOnUse">
<stop stop-color="#626364"/>
<stop offset="0.2143" stop-color="#525354"/>
<stop offset="0.6318" stop-color="#292A2A"/>
<stop offset="1"/>
</linearGradient>
<linearGradient id="paint56_linear_19_2" x1="213.496" y1="495.857" x2="261.037" y2="579.891" gradientUnits="userSpaceOnUse">
<stop stop-color="white"/>
<stop offset="0.197" stop-color="#999A9D"/>
<stop offset="0.2375" stop-color="#9F9FA2"/>
<stop offset="0.2892" stop-color="#AEAFB1"/>
<stop offset="0.3466" stop-color="#C8C8C9"/>
<stop offset="0.3996" stop-color="#E7E6E5"/>
<stop offset="0.5402" stop-color="#A2A3A4"/>
<stop offset="0.643" stop-color="#747678"/>
<stop offset="0.8117" stop-color="#8F9094"/>
<stop offset="1" stop-color="#B2B2B7"/>
</linearGradient>
<linearGradient id="paint57_linear_19_2" x1="213.497" y1="493.814" x2="260.977" y2="577.74" gradientUnits="userSpaceOnUse">
<stop stop-color="white"/>
<stop offset="0.197" stop-color="#999A9D"/>
<stop offset="0.2375" stop-color="#9F9FA2"/>
<stop offset="0.2892" stop-color="#AEAFB1"/>
<stop offset="0.3466" stop-color="#C8C8C9"/>
<stop offset="0.3996" stop-color="#E7E6E5"/>
<stop offset="0.5402" stop-color="#A2A3A4"/>
<stop offset="0.643" stop-color="#747678"/>
<stop offset="0.8117" stop-color="#8F9094"/>
<stop offset="1" stop-color="#B2B2B7"/>
</linearGradient>
<linearGradient id="paint58_linear_19_2" x1="210.663" y1="508.038" x2="262.324" y2="560.64" gradientUnits="userSpaceOnUse">
<stop stop-color="#626364"/>
<stop offset="0.2143" stop-color="#525354"/>
<stop offset="0.6318" stop-color="#292A2A"/>
<stop offset="1"/>
</linearGradient>
<linearGradient id="paint59_linear_19_2" x1="265.176" y1="561.745" x2="267.578" y2="564.191" gradientUnits="userSpaceOnUse">
<stop stop-color="#626364"/>
<stop offset="0.2143" stop-color="#525354"/>
<stop offset="0.6318" stop-color="#292A2A"/>
<stop offset="1"/>
</linearGradient>
<linearGradient id="paint60_linear_19_2" x1="206.142" y1="503.766" x2="208.545" y2="506.213" gradientUnits="userSpaceOnUse">
<stop stop-color="#626364"/>
<stop offset="0.2143" stop-color="#525354"/>
<stop offset="0.6318" stop-color="#292A2A"/>
<stop offset="1"/>
</linearGradient>
<radialGradient id="paint61_radial_19_2" cx="0" cy="0" r="1" gradientUnits="userSpaceOnUse" gradientTransform="translate(707.39 33.5952) rotate(44.4834) scale(13.0198 13.0176)">
<stop stop-color="#CECECF"/>
<stop offset="0.1731" stop-color="#BABABB"/>
<stop offset="0.5243" stop-color="#888889"/>
<stop offset="0.6916" stop-color="#6E6E6F"/>
<stop offset="0.7765" stop-color="#767778"/>
<stop offset="0.913" stop-color="#8D8E8F"/>
<stop offset="1" stop-color="#9FA1A2"/>
</radialGradient>
<radialGradient id="paint62_radial_19_2" cx="0" cy="0" r="1" gradientUnits="userSpaceOnUse" gradientTransform="translate(708.555 32.2937) rotate(44.4834) scale(13.0198 13.0177)">
<stop stop-color="white"/>
<stop offset="0.2348" stop-color="#CECECF"/>
<stop offset="0.3491" stop-color="#BABABB"/>
<stop offset="0.5811" stop-color="#888889"/>
<stop offset="0.6916" stop-color="#6E6E6F"/>
<stop offset="0.7765" stop-color="#767778"/>
<stop offset="0.913" stop-color="#8D8E8F"/>
<stop offset="1" stop-color="#9FA1A2"/>
</radialGradient>
<radialGradient id="paint63_radial_19_2" cx="0" cy="0" r="1" gradientUnits="userSpaceOnUse" gradientTransform="translate(686.667 55.4495) rotate(44.4834) scale(13.0198 13.0177)">
<stop stop-color="#CECECF"/>
<stop offset="0.1731" stop-color="#BABABB"/>
<stop offset="0.5243" stop-color="#888889"/>
<stop offset="0.6916" stop-color="#6E6E6F"/>
<stop offset="0.7765" stop-color="#767778"/>
<stop offset="0.913" stop-color="#8D8E8F"/>
<stop offset="1" stop-color="#9FA1A2"/>
</radialGradient>
<radialGradient id="paint64_radial_19_2" cx="0" cy="0" r="1" gradientUnits="userSpaceOnUse" gradientTransform="translate(687.832 54.1481) rotate(44.4834) scale(13.0198 13.0177)">
<stop stop-color="white"/>
<stop offset="0.2348" stop-color="#CECECF"/>
<stop offset="0.3491" stop-color="#BABABB"/>
<stop offset="0.5811" stop-color="#888889"/>
<stop offset="0.6916" stop-color="#6E6E6F"/>
<stop offset="0.7765" stop-color="#767778"/>
<stop offset="0.913" stop-color="#8D8E8F"/>
<stop offset="1" stop-color="#9FA1A2"/>
</radialGradient>
<radialGradient id="paint65_radial_19_2" cx="0" cy="0" r="1" gradientUnits="userSpaceOnUse" gradientTransform="translate(664.109 75.3513) rotate(44.4834) scale(13.0199 13.0178)">
<stop stop-color="#CECECF"/>
<stop offset="0.1731" stop-color="#BABABB"/>
<stop offset="0.5243" stop-color="#888889"/>
<stop offset="0.6916" stop-color="#6E6E6F"/>
<stop offset="0.7765" stop-color="#767778"/>
<stop offset="0.913" stop-color="#8D8E8F"/>
<stop offset="1" stop-color="#9FA1A2"/>
</radialGradient>
<radialGradient id="paint66_radial_19_2" cx="0" cy="0" r="1" gradientUnits="userSpaceOnUse" gradientTransform="translate(665.274 74.05) rotate(44.4834) scale(13.0198 13.0177)">
<stop stop-color="white"/>
<stop offset="0.2348" stop-color="#CECECF"/>
<stop offset="0.3491" stop-color="#BABABB"/>
<stop offset="0.5811" stop-color="#888889"/>
<stop offset="0.6916" stop-color="#6E6E6F"/>
<stop offset="0.7765" stop-color="#767778"/>
<stop offset="0.913" stop-color="#8D8E8F"/>
<stop offset="1" stop-color="#9FA1A2"/>
</radialGradient>
<radialGradient id="paint67_radial_19_2" cx="0" cy="0" r="1" gradientUnits="userSpaceOnUse" gradientTransform="translate(729.314 97.3345) rotate(-135.517) scale(13.0198 13.0177)">
<stop stop-color="#CECECF"/>
<stop offset="0.1731" stop-color="#BABABB"/>
<stop offset="0.5243" stop-color="#888889"/>
<stop offset="0.6916" stop-color="#6E6E6F"/>
<stop offset="0.7765" stop-color="#767778"/>
<stop offset="0.913" stop-color="#8D8E8F"/>
<stop offset="1" stop-color="#9FA1A2"/>
</radialGradient>
<radialGradient id="paint68_radial_19_2" cx="0" cy="0" r="1" gradientUnits="userSpaceOnUse" gradientTransform="translate(730.639 96.1903) rotate(-135.517) scale(13.0201 13.0179)">
<stop stop-color="white"/>
<stop offset="0.2348" stop-color="#CECECF"/>
<stop offset="0.3491" stop-color="#BABABB"/>
<stop offset="0.5811" stop-color="#888889"/>
<stop offset="0.6916" stop-color="#6E6E6F"/>
<stop offset="0.7765" stop-color="#767778"/>
<stop offset="0.913" stop-color="#8D8E8F"/>
<stop offset="1" stop-color="#9FA1A2"/>
</radialGradient>
<radialGradient id="paint69_radial_19_2" cx="0" cy="0" r="1" gradientUnits="userSpaceOnUse" gradientTransform="translate(709.05 119.49) rotate(-135.517) scale(13.0199 13.0178)">
<stop stop-color="#CECECF"/>
<stop offset="0.1731" stop-color="#BABABB"/>
<stop offset="0.5243" stop-color="#888889"/>
<stop offset="0.6916" stop-color="#6E6E6F"/>
<stop offset="0.7765" stop-color="#767778"/>
<stop offset="0.913" stop-color="#8D8E8F"/>
<stop offset="1" stop-color="#9FA1A2"/>
</radialGradient>
<radialGradient id="paint70_radial_19_2" cx="0" cy="0" r="1" gradientUnits="userSpaceOnUse" gradientTransform="translate(710.375 118.346) rotate(-135.517) scale(13.0198 13.0177)">
<stop stop-color="white"/>
<stop offset="0.2348" stop-color="#CECECF"/>
<stop offset="0.3491" stop-color="#BABABB"/>
<stop offset="0.5811" stop-color="#888889"/>
<stop offset="0.6916" stop-color="#6E6E6F"/>
<stop offset="0.7765" stop-color="#767778"/>
<stop offset="0.913" stop-color="#8D8E8F"/>
<stop offset="1" stop-color="#9FA1A2"/>
</radialGradient>
<linearGradient id="paint71_linear_19_2" x1="182.709" y1="571.559" x2="702.604" y2="42.2031" gradientUnits="userSpaceOnUse">
<stop stop-color="white"/>
<stop offset="0.2728" stop-color="#7F7F7F"/>
<stop offset="0.5234" stop-color="white"/>
<stop offset="0.7687" stop-color="#7F7F7F"/>
<stop offset="1" stop-color="white"/>
</linearGradient>
<linearGradient id="paint72_linear_19_2" x1="180.932" y1="569.224" x2="679.4" y2="61.6865" gradientUnits="userSpaceOnUse">
<stop stop-color="white"/>
<stop offset="0.2728" stop-color="#7F7F7F"/>
<stop offset="0.5234" stop-color="white"/>
<stop offset="0.7687" stop-color="#7F7F7F"/>
<stop offset="1" stop-color="white"/>
</linearGradient>
<linearGradient id="paint73_linear_19_2" x1="177.614" y1="565.971" x2="655.001" y2="79.897" gradientUnits="userSpaceOnUse">
<stop stop-color="white"/>
<stop offset="0.2728" stop-color="#7F7F7F"/>
<stop offset="0.5234" stop-color="white"/>
<stop offset="0.7687" stop-color="#7F7F7F"/>
<stop offset="1" stop-color="white"/>
</linearGradient>
<linearGradient id="paint74_linear_19_2" x1="203.591" y1="592.067" x2="723.486" y2="62.712" gradientUnits="userSpaceOnUse">
<stop stop-color="white"/>
<stop offset="0.2728" stop-color="#7F7F7F"/>
<stop offset="0.5234" stop-color="white"/>
<stop offset="0.7687" stop-color="#7F7F7F"/>
<stop offset="1" stop-color="white"/>
</linearGradient>
<linearGradient id="paint75_linear_19_2" x1="205.968" y1="593.812" x2="704.435" y2="86.274" gradientUnits="userSpaceOnUse">
<stop stop-color="white"/>
<stop offset="0.2728" stop-color="#7F7F7F"/>
<stop offset="0.5234" stop-color="white"/>
<stop offset="0.7687" stop-color="#7F7F7F"/>
<stop offset="1" stop-color="white"/>
</linearGradient>
<linearGradient id="paint76_linear_19_2" x1="209.28" y1="597.071" x2="686.667" y2="110.997" gradientUnits="userSpaceOnUse">
<stop stop-color="white"/>
<stop offset="0.2728" stop-color="#7F7F7F"/>
<stop offset="0.5234" stop-color="white"/>
<stop offset="0.7687" stop-color="#7F7F7F"/>
<stop offset="1" stop-color="white"/>
</linearGradient>
<linearGradient id="paint77_linear_19_2" x1="157.641" y1="548.257" x2="222.518" y2="614.315" gradientUnits="userSpaceOnUse">
<stop stop-color="white"/>
<stop offset="0.197" stop-color="#999A9D"/>
<stop offset="0.2375" stop-color="#9F9FA2"/>
<stop offset="0.2892" stop-color="#AEAFB1"/>
<stop offset="0.3466" stop-color="#C8C8C9"/>
<stop offset="0.3996" stop-color="#E7E6E5"/>
<stop offset="0.5402" stop-color="#A2A3A4"/>
<stop offset="0.643" stop-color="#747678"/>
<stop offset="0.8117" stop-color="#8F9094"/>
<stop offset="1" stop-color="#B2B2B7"/>
</linearGradient>
<linearGradient id="paint78_linear_19_2" x1="157.641" y1="546.895" x2="222.518" y2="612.952" gradientUnits="userSpaceOnUse">
<stop stop-color="white"/>
<stop offset="0.197" stop-color="#999A9D"/>
<stop offset="0.2375" stop-color="#9F9FA2"/>
<stop offset="0.2892" stop-color="#AEAFB1"/>
<stop offset="0.3466" stop-color="#C8C8C9"/>
<stop offset="0.3996" stop-color="#E7E6E5"/>
<stop offset="0.5402" stop-color="#A2A3A4"/>
<stop offset="0.643" stop-color="#747678"/>
<stop offset="0.8117" stop-color="#8F9094"/>
<stop offset="1" stop-color="#B2B2B7"/>
</linearGradient>
<linearGradient id="paint79_linear_19_2" x1="216.842" y1="605.328" x2="219.725" y2="608.265" gradientUnits="userSpaceOnUse">
<stop stop-color="#626364"/>
<stop offset="0.2143" stop-color="#525354"/>
<stop offset="0.6318" stop-color="#292A2A"/>
<stop offset="1"/>
</linearGradient>
<linearGradient id="paint80_linear_19_2" x1="160.929" y1="550.415" x2="163.811" y2="553.349" gradientUnits="userSpaceOnUse">
<stop stop-color="#626364"/>
<stop offset="0.2143" stop-color="#525354"/>
<stop offset="0.6318" stop-color="#292A2A"/>
<stop offset="1"/>
</linearGradient>
<linearGradient id="paint81_linear_19_2" x1="157.641" y1="546.895" x2="222.518" y2="612.952" gradientUnits="userSpaceOnUse">
<stop stop-color="white"/>
<stop offset="0.197" stop-color="#999A9D"/>
<stop offset="0.2375" stop-color="#9F9FA2"/>
<stop offset="0.2892" stop-color="#AEAFB1"/>
<stop offset="0.3466" stop-color="#C8C8C9"/>
<stop offset="0.3996" stop-color="#E7E6E5"/>
<stop offset="0.5402" stop-color="#A2A3A4"/>
<stop offset="0.643" stop-color="#747678"/>
<stop offset="0.8117" stop-color="#8F9094"/>
<stop offset="1" stop-color="#B2B2B7"/>
</linearGradient>
<linearGradient id="paint82_linear_19_2" x1="198.117" y1="643.638" x2="190.554" y2="699.641" gradientUnits="userSpaceOnUse">
<stop stop-color="#6E5353"/>
<stop offset="0.2021" stop-color="#483339"/>
<stop offset="0.4387" stop-color="#21121F"/>
<stop offset="0.5625" stop-color="#120515"/>
<stop offset="1"/>
</linearGradient>
<linearGradient id="paint83_linear_19_2" x1="267.74" y1="659.671" x2="298.384" y2="650.223" gradientUnits="userSpaceOnUse">
<stop stop-color="#999A9D"/>
<stop offset="0.061756" stop-color="#9F9FA2"/>
<stop offset="0.1406" stop-color="#AEAFB1"/>
<stop offset="0.2284" stop-color="#C8C8C9"/>
<stop offset="0.3092" stop-color="#E7E6E5"/>
<stop offset="0.5021" stop-color="#A2A3A4"/>
<stop offset="0.643" stop-color="#747678"/>
</linearGradient>
<linearGradient id="paint84_linear_19_2" x1="278.345" y1="642.966" x2="286.235" y2="669.48" gradientUnits="userSpaceOnUse">
<stop stop-color="white"/>
<stop offset="0.197" stop-color="#999A9D"/>
<stop offset="0.2375" stop-color="#9F9FA2"/>
<stop offset="0.2892" stop-color="#AEAFB1"/>
<stop offset="0.3466" stop-color="#C8C8C9"/>
<stop offset="0.3996" stop-color="#E7E6E5"/>
<stop offset="0.5402" stop-color="#A2A3A4"/>
<stop offset="0.643" stop-color="#747678"/>
<stop offset="0.8117" stop-color="#8F9094"/>
<stop offset="1" stop-color="#B2B2B7"/>
</linearGradient>
<radialGradient id="paint85_radial_19_2" cx="0" cy="0" r="1" gradientUnits="userSpaceOnUse" gradientTransform="translate(282.343 649.854) rotate(44.4833) scale(11.5755 11.5737)">
<stop offset="0.2883" stop-color="#626364"/>
<stop offset="0.4409" stop-color="#525354"/>
<stop offset="0.738" stop-color="#292A2A"/>
<stop offset="1"/>
</radialGradient>
<linearGradient id="paint86_linear_19_2" x1="313.559" y1="288.25" x2="344.203" y2="278.801" gradientUnits="userSpaceOnUse">
<stop stop-color="#999A9D"/>
<stop offset="0.061756" stop-color="#9F9FA2"/>
<stop offset="0.1406" stop-color="#AEAFB1"/>
<stop offset="0.2284" stop-color="#C8C8C9"/>
<stop offset="0.3092" stop-color="#E7E6E5"/>
<stop offset="0.5021" stop-color="#A2A3A4"/>
<stop offset="0.643" stop-color="#747678"/>
</linearGradient>
<linearGradient id="paint87_linear_19_2" x1="324.163" y1="271.545" x2="332.054" y2="298.059" gradientUnits="userSpaceOnUse">
<stop stop-color="white"/>
<stop offset="0.197" stop-color="#999A9D"/>
<stop offset="0.2375" stop-color="#9F9FA2"/>
<stop offset="0.2892" stop-color="#AEAFB1"/>
<stop offset="0.3466" stop-color="#C8C8C9"/>
<stop offset="0.3996" stop-color="#E7E6E5"/>
<stop offset="0.5402" stop-color="#A2A3A4"/>
<stop offset="0.643" stop-color="#747678"/>
<stop offset="0.8117" stop-color="#8F9094"/>
<stop offset="1" stop-color="#B2B2B7"/>
</linearGradient>
<radialGradient id="paint88_radial_19_2" cx="0" cy="0" r="1" gradientUnits="userSpaceOnUse" gradientTransform="translate(328.162 278.433) rotate(44.4834) scale(11.5755 11.5736)">
<stop offset="0.2883" stop-color="#626364"/>
<stop offset="0.4409" stop-color="#525354"/>
<stop offset="0.738" stop-color="#292A2A"/>
<stop offset="1"/>
</radialGradient>
<linearGradient id="paint89_linear_19_2" x1="223.235" y1="673.941" x2="253.88" y2="664.492" gradientUnits="userSpaceOnUse">
<stop stop-color="#999A9D"/>
<stop offset="0.061756" stop-color="#9F9FA2"/>
<stop offset="0.1406" stop-color="#AEAFB1"/>
<stop offset="0.2284" stop-color="#C8C8C9"/>
<stop offset="0.3092" stop-color="#E7E6E5"/>
<stop offset="0.5021" stop-color="#A2A3A4"/>
<stop offset="0.643" stop-color="#747678"/>
</linearGradient>
<linearGradient id="paint90_linear_19_2" x1="233.841" y1="657.235" x2="241.731" y2="683.75" gradientUnits="userSpaceOnUse">
<stop stop-color="white"/>
<stop offset="0.197" stop-color="#999A9D"/>
<stop offset="0.2375" stop-color="#9F9FA2"/>
<stop offset="0.2892" stop-color="#AEAFB1"/>
<stop offset="0.3466" stop-color="#C8C8C9"/>
<stop offset="0.3996" stop-color="#E7E6E5"/>
<stop offset="0.5402" stop-color="#A2A3A4"/>
<stop offset="0.643" stop-color="#747678"/>
<stop offset="0.8117" stop-color="#8F9094"/>
<stop offset="1" stop-color="#B2B2B7"/>
</linearGradient>
<radialGradient id="paint91_radial_19_2" cx="0" cy="0" r="1" gradientUnits="userSpaceOnUse" gradientTransform="translate(237.839 664.123) rotate(44.4834) scale(11.5755 11.5737)">
<stop offset="0.2883" stop-color="#626364"/>
<stop offset="0.4409" stop-color="#525354"/>
<stop offset="0.738" stop-color="#292A2A"/>
<stop offset="1"/>
</radialGradient>
<linearGradient id="paint92_linear_19_2" x1="176.437" y1="677.245" x2="207.082" y2="667.796" gradientUnits="userSpaceOnUse">
<stop stop-color="#999A9D"/>
<stop offset="0.061756" stop-color="#9F9FA2"/>
<stop offset="0.1406" stop-color="#AEAFB1"/>
<stop offset="0.2284" stop-color="#C8C8C9"/>
<stop offset="0.3092" stop-color="#E7E6E5"/>
<stop offset="0.5021" stop-color="#A2A3A4"/>
<stop offset="0.643" stop-color="#747678"/>
</linearGradient>
<linearGradient id="paint93_linear_19_2" x1="187.042" y1="660.54" x2="194.932" y2="687.054" gradientUnits="userSpaceOnUse">
<stop stop-color="white"/>
<stop offset="0.197" stop-color="#999A9D"/>
<stop offset="0.2375" stop-color="#9F9FA2"/>
<stop offset="0.2892" stop-color="#AEAFB1"/>
<stop offset="0.3466" stop-color="#C8C8C9"/>
<stop offset="0.3996" stop-color="#E7E6E5"/>
<stop offset="0.5402" stop-color="#A2A3A4"/>
<stop offset="0.643" stop-color="#747678"/>
<stop offset="0.8117" stop-color="#8F9094"/>
<stop offset="1" stop-color="#B2B2B7"/>
</linearGradient>
<radialGradient id="paint94_radial_19_2" cx="0" cy="0" r="1" gradientUnits="userSpaceOnUse" gradientTransform="translate(191.04 667.428) rotate(44.4834) scale(11.5755 11.5737)">
<stop offset="0.2883" stop-color="#626364"/>
<stop offset="0.4409" stop-color="#525354"/>
<stop offset="0.738" stop-color="#292A2A"/>
<stop offset="1"/>
</radialGradient>
<clipPath id="clip0_19_2">
<rect width="720" height="688" fill="white"/>
</clipPath>
</defs>
</svg>
