<svg width="69" height="68" viewBox="0 0 69 68" fill="none" xmlns="http://www.w3.org/2000/svg">
<path fill-rule="evenodd" clip-rule="evenodd" d="M35.3118 1.00989C16.8158 0.568158 1.4584 14.9821 1.01004 33.2043C0.561669 51.4265 15.1922 66.5566 33.6882 66.9983C34.8789 67.0267 35.9557 66.6977 36.8555 66.0272C37.7285 65.3767 38.3333 64.4818 38.7562 63.5244C39.5854 61.6472 39.8649 59.1855 39.8789 56.6469C39.9297 47.4693 48.1017 39.499 57.3242 39.8432C59.8614 39.9379 62.3089 39.8041 64.1951 39.1911C65.1495 38.881 66.0782 38.4112 66.7895 37.6782C67.5366 36.9084 67.9623 35.9291 67.99 34.8039C68.4383 16.5817 53.8078 1.45162 35.3118 1.00989ZM23.5334 45.8254C21.6002 46.0583 20.2248 47.7911 20.4612 49.6956C20.6976 51.6001 22.4564 52.9551 24.3895 52.7222C26.3226 52.4893 27.6981 50.7566 27.4616 48.8521C27.2252 46.9476 25.4665 45.5925 23.5334 45.8254ZM11.7486 36.7454C11.5122 34.8409 12.8876 33.1082 14.8207 32.8753C16.7538 32.6424 18.5126 33.9975 18.749 35.902C18.9854 37.8065 17.61 39.5392 15.6768 39.7721C13.7437 40.005 11.985 38.6499 11.7486 36.7454ZM20.1089 18.2382C18.1758 18.4712 16.8003 20.2039 17.0367 22.1084C17.2731 24.0129 19.0319 25.368 20.965 25.135C22.8981 24.9021 24.2736 23.1694 24.0372 21.2649C23.8007 19.3604 22.042 18.0053 20.1089 18.2382ZM47.5376 24.5584C47.3012 22.6539 48.6767 20.9212 50.6098 20.6883C52.5429 20.4554 54.3017 21.8105 54.5381 23.715C54.7745 25.6195 53.399 27.3522 51.4659 27.5851C49.5328 27.818 47.7741 26.4629 47.5376 24.5584ZM34.4738 30.1083C32.5407 30.3413 31.1653 32.074 31.4017 33.9785C31.6381 35.883 33.3968 37.2381 35.33 37.0052C37.2631 36.7722 38.6385 35.0395 38.4021 33.135C38.1657 31.2305 36.407 29.8754 34.4738 30.1083ZM32.3597 16.7622C32.1232 14.8577 33.4987 13.1249 35.4318 12.892C37.3649 12.6591 39.1237 14.0142 39.3601 15.9187C39.5965 17.8232 38.2211 19.5559 36.2879 19.7888C34.3548 20.0217 32.5961 18.6667 32.3597 16.7622Z" fill="#8B5CF6" stroke="black"/>
</svg>
