<svg width="53" height="63" viewBox="0 0 53 63" fill="none" xmlns="http://www.w3.org/2000/svg">
<path d="M32.7639 2.64503C29.3377 -0.881672 23.6625 -0.881677 20.2362 2.64501L3.50102 19.8706C2.53989 20.8599 1.89403 22.1106 1.64482 23.465C-0.387613 34.5113 -0.537638 45.82 1.20105 56.9159L1.81662 60.8444C2.01105 62.0852 3.08337 63 4.34346 63H16.0373C17.0003 63 17.7811 62.2219 17.7811 61.2621V36.9308H35.2191V61.2621C35.2191 62.2219 35.9998 63 36.9629 63H48.6565C49.9166 63 50.9889 62.0852 51.1834 60.8444L51.799 56.916C53.5376 45.82 53.3876 34.5113 51.3552 23.465C51.106 22.1106 50.4601 20.8599 49.499 19.8706L32.7639 2.64503Z" fill="#8B5CF6"/>
</svg>
