<svg width="53" height="70" viewBox="0 0 53 70" fill="none" xmlns="http://www.w3.org/2000/svg">
<path d="M0 25.4308C0 11.3301 11.9216 0 26.5 0C41.0784 0 53 11.3301 53 25.4308C53 33.6697 49.5616 41.103 43.1247 45.7909C42.6804 46.1145 42.4115 46.5158 42.3178 46.9097C42.1281 47.7077 41.9199 48.6213 41.7057 49.6013C41.5997 50.0861 41.1676 50.4334 40.6668 50.4334H12.3332C11.8324 50.4334 11.4003 50.0861 11.2943 49.6013C11.0801 48.6213 10.8719 47.7077 10.6822 46.9097C10.5885 46.5158 10.3196 46.1145 9.8753 45.7909C3.43839 41.103 0 33.6697 0 25.4308Z" fill="#8B5CF6"/>
<path d="M13.7819 55.6834C13.1216 55.6834 12.6225 56.2751 12.7324 56.92C13.0643 58.8681 13.3067 60.6076 13.3801 61.8097C13.6027 65.4539 16.3124 68.4556 19.9359 69.2311L20.6283 69.3793C24.4953 70.2069 28.5047 70.2069 32.3717 69.3793L33.0641 69.2311C36.6876 68.4556 39.3973 65.4539 39.6199 61.8097C39.6933 60.6076 39.9357 58.8681 40.2676 56.92C40.3775 56.2751 39.8784 55.6834 39.2181 55.6834H13.7819Z" fill="#8B5CF6"/>
</svg>
